<svg width="22" height="22" viewBox="0 0 22 22" fill="none" xmlns="http://www.w3.org/2000/svg">
<path d="M13.5667 21.725C13.3833 21.725 13.2 21.8167 12.925 21.8167C12.65 21.8167 12.375 21.9083 12.1 21.9083C11.55 22 11 22 10.45 22C10.175 22 9.9 22 9.53333 21.9083C9.44167 21.9083 9.25833 21.9083 9.075 21.8167C8.61667 21.725 8.15833 21.6333 7.7 21.45C6.69167 21.175 5.68333 20.7167 4.85833 20.075C4.76667 20.075 4.76667 19.9833 4.675 19.9833C4.49167 19.8917 4.30833 19.8 4.21667 19.6167C3.75833 19.25 3.3 18.8833 2.84167 18.425C2.65833 18.15 2.38333 17.9667 2.2 17.6917C2.10833 17.5083 1.925 17.4167 1.83333 17.2333L1.74167 17.1417C1.46667 16.775 1.28333 16.4083 1.1 16.0417C0.916667 15.675 0.733333 15.2167 0.55 14.85C0.458333 14.6667 0.458333 14.4833 0.366667 14.3C0.275 13.8417 0.0916667 13.3833 0.0916667 12.925C0.0916667 12.7417 0.0916667 12.65 0 12.4667C0 11.9167 0 11.275 0 10.725C0 10.6333 0 10.5417 0 10.45C0 10.175 0.0916667 9.9 0.0916667 9.53333C0.0916667 9.35 0.0916667 9.25833 0.183333 9.075C0.275 8.61667 0.366667 8.15833 0.458333 7.7C0.55 7.51667 0.55 7.33333 0.641667 7.15C0.825 6.78333 1.00833 6.41667 1.19167 6.05C1.375 5.59167 1.65 5.225 1.83333 4.85833C2.475 3.85 3.3 3.025 4.21667 2.29167C4.4 2.2 4.58333 2.01667 4.76667 1.925L4.85833 1.83333C5.225 1.55833 5.59167 1.375 5.95833 1.19167C6.6 0.825 7.33333 0.55 8.06667 0.366667C8.15833 0.366667 8.25 0.366667 8.34167 0.366667C8.8 0.275 9.25833 0.183333 9.80833 0.0916667C10.3583 0 10.9083 0 11.4583 0H11.55C11.7333 0 11.825 0 12.0083 0C12.1917 0 12.375 0 12.4667 0.0916667C12.8333 0.183333 13.2 0.183333 13.5667 0.275C13.8417 0.366667 14.025 0.366667 14.3 0.458333C14.4833 0.55 14.6667 0.55 14.85 0.641667C15.2167 0.825 15.675 1.00833 16.0417 1.19167C16.4083 1.375 16.775 1.65 17.1417 1.83333L17.2333 1.925C17.325 2.01667 17.4167 2.10833 17.6 2.2C17.7833 2.29167 17.7833 2.38333 17.6 2.475C17.325 2.75 16.9583 3.11667 16.6833 3.39167C16.5 3.575 16.3167 3.66667 16.225 3.75833C16.1333 3.85 16.0417 3.85 15.95 3.75833C15.5833 3.48333 15.2167 3.3 14.85 3.11667C14.4833 2.93333 14.025 2.75 13.6583 2.65833C13.475 2.56667 13.3833 2.56667 13.2 2.56667C13.0167 2.475 12.7417 2.475 12.5583 2.38333C12.4667 2.38333 12.4667 2.38333 12.375 2.38333C12.1917 2.38333 12.1917 2.38333 12.1917 2.56667C12.1917 2.75 12.1917 2.93333 12.1917 3.11667C12.1917 3.3 12.1917 3.3 12.0083 3.3C11.3667 3.3 10.8167 3.3 10.175 3.3C9.99167 3.3 9.99167 3.3 9.99167 3.11667C9.99167 2.93333 9.99167 2.75 9.99167 2.475C9.99167 2.29167 9.99167 2.29167 9.80833 2.29167C9.71667 2.29167 9.71667 2.29167 9.625 2.29167C9.16667 2.475 8.8 2.56667 8.43333 2.65833C7.975 2.75 7.60833 2.93333 7.15 3.11667C6.96667 3.20833 6.78333 3.3 6.6 3.39167C6.50833 3.48333 6.325 3.575 6.23333 3.66667C6.14167 3.66667 6.14167 3.75833 6.05 3.75833C5.13333 4.4 4.4 5.13333 3.85 6.05C3.575 6.41667 3.39167 6.78333 3.20833 7.15C3.20833 7.15 3.20833 7.24167 3.11667 7.33333C2.75 8.06667 2.475 8.8 2.38333 9.625C2.38333 9.80833 2.38333 9.80833 2.56667 9.80833C2.75 9.80833 2.93333 9.80833 3.11667 9.80833C3.3 9.80833 3.39167 9.9 3.39167 10.0833C3.39167 10.6333 3.48333 11.0917 3.39167 11.6417C3.39167 11.7333 3.39167 11.825 3.39167 12.0083C3.39167 12.1917 3.39167 12.1917 3.20833 12.1917C3.025 12.1917 2.84167 12.1917 2.65833 12.1917C2.38333 12.1917 2.38333 12.1917 2.475 12.4667V12.5583C2.56667 12.925 2.65833 13.2917 2.75 13.6583C2.84167 14.1167 3.025 14.4833 3.20833 14.9417C3.39167 15.3083 3.575 15.675 3.85 16.0417C4.125 16.5 4.49167 16.8667 4.85833 17.2333C5.225 17.6 5.59167 17.9667 6.05 18.2417C6.14167 18.2417 6.14167 18.3333 6.23333 18.3333C6.41667 18.425 6.50833 18.5167 6.69167 18.6083C6.875 18.7 7.05833 18.7917 7.24167 18.8833C7.60833 19.0667 8.06667 19.25 8.43333 19.3417C8.8 19.4333 9.16667 19.525 9.53333 19.6167C9.625 19.6167 9.71667 19.6167 9.71667 19.6167C9.80833 19.6167 9.9 19.6167 9.9 19.525C9.9 19.25 9.9 19.0667 9.9 18.7917C9.9 18.6083 9.9 18.6083 10.0833 18.6083C10.725 18.6083 11.3667 18.6083 12.0083 18.6083C12.1917 18.6083 12.1917 18.6083 12.1917 18.7917C12.1917 18.975 12.1917 19.25 12.1917 19.4333C12.1917 19.525 12.2833 19.6167 12.375 19.6167C12.4667 19.6167 12.5583 19.6167 12.5583 19.6167C12.925 19.525 13.2917 19.4333 13.6583 19.3417C14.1167 19.25 14.4833 19.0667 14.85 18.8833C15.2167 18.7 15.5833 18.5167 15.95 18.2417C16.8667 17.6 17.6 16.8667 18.2417 15.95C18.5167 15.5833 18.7 15.2167 18.8833 14.85C19.0667 14.4833 19.25 14.025 19.3417 13.5667C19.4333 13.2 19.525 12.8333 19.6167 12.4667C19.6167 12.375 19.6167 12.2833 19.6167 12.1917C19.6167 12.1 19.6167 12.0083 19.525 12.0083C19.3417 12.0083 19.0667 12.0083 18.8833 12.0083C18.7 12.0083 18.7 12.0083 18.7 11.825C18.7 11.1833 18.7 10.6333 18.7 9.99167C18.7 9.80833 18.7 9.80833 18.8833 9.80833C19.0667 9.80833 19.3417 9.80833 19.525 9.80833C19.6167 9.80833 19.7083 9.71667 19.7083 9.625C19.7083 9.53333 19.7083 9.44167 19.7083 9.44167C19.6167 9.16667 19.525 8.8 19.4333 8.525C19.4333 8.43333 19.4333 8.43333 19.4333 8.34167C19.3417 7.975 19.1583 7.7 19.0667 7.33333C19.0667 7.24167 19.0667 7.15 19.0667 7.05833C19.525 6.6 19.9833 6.14167 20.35 5.775L20.4417 5.68333C20.625 5.59167 20.625 5.59167 20.7167 5.775C20.7167 5.86667 20.8083 5.95833 20.8083 6.05C20.9917 6.41667 21.175 6.875 21.3583 7.24167C21.6333 7.975 21.8167 8.8 21.9083 9.625C21.9083 9.9 22 10.2667 22 10.5417C22 10.6333 22 10.725 22 10.8167C22 11 22 11.1833 22 11.4583C22 11.55 22 11.6417 22 11.7333C22 12.0083 22 12.375 21.9083 12.65C21.9083 12.7417 21.9083 12.925 21.8167 13.0167C21.725 13.6583 21.5417 14.2083 21.3583 14.7583C21.175 15.2167 20.9917 15.675 20.8083 16.1333C20.625 16.5 20.35 16.9583 20.1667 17.325C19.9833 17.6917 19.7083 17.9667 19.4333 18.2417C18.975 18.7917 18.5167 19.25 18.0583 19.6167C17.7833 19.8917 17.4167 20.075 17.1417 20.35C16.775 20.5333 16.5 20.8083 16.1333 20.9917C16.1333 20.9917 16.0417 21.0833 16.0417 20.9917C15.2167 21.175 14.3917 21.45 13.5667 21.725Z" fill="#03CE3C"/>
<path d="M7.24168 7.05824C7.42501 6.87491 7.42501 6.87491 7.70001 7.05824C8.80001 8.15824 9.90001 9.25824 11 10.3582C11.0917 10.4499 11.0917 10.4499 11.1833 10.3582C13.3833 8.15824 15.4917 5.95824 17.6917 3.84991C18.5167 3.02491 19.25 2.29158 20.075 1.46658C20.1667 1.37491 20.1667 1.37491 20.2583 1.46658C20.7167 1.92491 21.175 2.38324 21.6333 2.84158C21.725 2.93324 21.725 2.93324 21.6333 3.02491C20.7167 3.94158 19.8 4.85824 18.8833 5.86658C17.9667 6.78324 17.05 7.69991 16.1333 8.61658C16.1333 8.61658 16.1333 8.70824 16.0417 8.70824C16.0417 8.79991 15.95 8.79991 15.8583 8.89158C15.125 9.62491 14.3917 10.3582 13.75 11.0916C13.6583 11.1832 13.6583 11.1832 13.5667 11.2749C13.1083 11.7332 12.65 12.1916 12.1917 12.6499C11.9167 12.9249 11.55 13.2916 11.275 13.5666C11.1833 13.6582 11.0917 13.6582 11 13.5666C10.6333 13.1999 10.2667 12.8332 9.90001 12.4666C9.80835 12.3749 9.80835 12.3749 9.71668 12.2832C9.16668 11.7332 8.70835 11.2749 8.15835 10.7249C7.88335 10.4499 7.60835 10.1749 7.42501 9.99158C6.96668 9.53324 6.60001 9.16658 6.14168 8.70824C5.95835 8.52491 5.95835 8.52491 6.14168 8.43324C6.50835 8.06658 6.87501 7.69991 7.24168 7.33324C7.05835 7.14991 7.15001 7.14991 7.24168 7.05824Z" fill="#03CE3C"/>
</svg>
